<svg xmlns="http://www.w3.org/2000/svg" xmlns:xlink="http://www.w3.org/1999/xlink" version="1.1" id="Layer_1" x="0px" y="0px" viewBox="0 0 68 76" style="enable-background:new 0 0 68 76;" xml:space="preserve"><g><rect style="fill:#003366;" width="68" height="76.294"/><path style="fill:none;stroke:#FFFFFF;stroke-width:0.5015;" d="M62.749,55.582H50.267c0,0-0.004,7.895-0.002,8.855   c0.007,2.304,2.753,5.63,6.129,5.63c3.951,0,6.363-3.592,6.363-5.696C62.757,62.616,62.749,55.582,62.749,55.582z"/><polyline style="fill:none;stroke:#FFFFFF;stroke-width:0.5015;" points="56.08,48.523 56.619,48.484 57.197,52.21 56.464,51.787    55.542,52.248 56.042,48.407  "/><path style="fill:none;stroke:#FFFFFF;stroke-width:0.5015;" d="M50.185,51.825l0.938,0.636c0,0,1.331-2.296,2.945-3.266   c0.725-0.441,2.355-0.981,1.205-0.868C51.256,48.734,50.185,51.825,50.185,51.825z"/><path style="fill:none;stroke:#FFFFFF;stroke-width:0.5015;" d="M52.662,52.287h1.444c0,0,0.652-2.27,1.917-3.649   c0.315-0.344,0.076-0.329-0.712,0.076C53.855,49.463,52.662,52.287,52.662,52.287z"/><path style="fill:none;stroke:#FFFFFF;stroke-width:0.5015;" d="M62.462,51.766l-1.091,0.646c0,0-1.202-2.239-2.822-3.23   c-0.723-0.443-2.371-0.918-1.221-0.854C61.077,48.548,62.462,51.766,62.462,51.766z"/><path style="fill:none;stroke:#FFFFFF;stroke-width:0.5015;" d="M60.114,52.283L58.675,52.3c0,0-0.679-2.261-1.966-3.629   c-0.315-0.339-0.078-0.324,0.713,0.069C58.891,49.471,60.114,52.283,60.114,52.283z"/><g><path style="fill:#004A80;stroke:#FFFFFF;stroke-width:0.5015;" d="M50.803,53.165c0,0,0.209,0.563,1.002,0.563    c0.86,0,1-0.6,1-0.6l-0.666-0.854l1.264-1.316l1.065,1.336l-0.662,0.811c0,0,0.266,0.586,0.979,0.586    c0.633,0,1.008-0.612,1.008-0.612l-0.684-0.784l1.274-1.308l1.055,1.333l-0.651,0.767c0,0,0.495,0.701,1.071,0.643    c0.576-0.058,1.016-0.563,1.016-0.563l-0.722-0.825l1.248-1.354l1.055,1.308l-0.699,0.865c0,0,0.564,0.593,1.153,0.569    c0.575-0.021,1.001-0.624,1.001-0.624l-0.695-0.764l1.899-1.28l-0.403,3.742H50.203l-0.524-3.628l1.673,1.166L50.803,53.165z"/></g><circle style="fill:#004A80;stroke:#FFFFFF;stroke-width:0.5015;" cx="56.351" cy="47.713" r="0.871"/><g><polygon style="fill:#FFFFFF;stroke:#FFFFFF;stroke-width:0.412;" points="56.646,46.831 56.646,46.396 57.259,46.382     57.259,45.875 56.602,45.875 56.602,45.266 55.992,45.266 55.992,45.875 55.356,45.875 55.356,46.382 56.049,46.396 56.05,46.84       "/></g><g><polygon style="fill:#FFFFFF;" points="56.232,58.964 55.897,56.998 56.445,56.379 57.017,57.045 56.628,58.967 58.165,57.788     58.99,57.921 58.642,58.731 56.884,59.327 58.547,59.979 58.877,60.771 57.991,60.914 56.618,59.676 56.92,61.489 56.424,62.137     55.851,61.502 56.216,59.676 54.785,60.883 53.891,60.738 54.262,59.945 56.035,59.304 54.209,58.592 53.95,57.828 54.73,57.652       "/></g><path style="fill:none;stroke:#FFFFFF;stroke-width:0.5015;" d="M50.303,63.169c0.145,0,0.412-0.261,1.312-0.302   c1.051-0.052,1.403,0.449,2.305,0.499c0.771,0.042,1.293-0.473,2.475-0.499c1.069-0.025,1.848,0.475,2.578,0.449   c0.721-0.023,1.197-0.609,2.451-0.551c1.075,0.05,1.125,0.199,1.326,0.301"/><path style="fill:none;stroke:#FFFFFF;stroke-width:0.5015;" d="M50.66,66.069c0.217-0.08,0.52-0.159,0.951-0.18   c1.051-0.05,1.404,0.45,2.304,0.498c0.771,0.045,1.292-0.473,2.474-0.498c1.072-0.022,1.848,0.474,2.582,0.45   c0.721-0.023,1.196-0.607,2.448-0.551c0.491,0.021,0.784,0.098,0.972,0.181"/><path style="fill:#FFFFFF;" d="M7.374,40.553c0,1-0.018,1.711,0.923,2.266v0.057H5.14v-0.057c0.947-0.555,0.947-1.266,0.947-2.266   v-7.122c0-1.001,0-1.715-0.927-2.251v-0.053h2.607v0.018c0.073,0.215,0.141,0.304,0.269,0.447l0.246,0.358l6.533,8.249v-6.766   c0-1.001,0.018-1.715-0.929-2.251v-0.053h3.145v0.053C16.1,31.716,16.1,32.43,16.1,33.431v10.015   c-1.27-0.432-1.821-1.02-2.609-2.038l-6.117-7.761V40.553z"/><path style="fill:#FFFFFF;" d="M21.525,38.464l-0.928,2.516c-0.375,1-0.501,1.518,0.355,1.838v0.057h-3.287v-0.057   c1.037-0.518,1.341-1.518,1.735-2.533l2.978-7.443c0.25-0.643,0.589-1.394-0.264-1.662v-0.053h2.817l3.712,9.159   c0.41,1.016,0.733,2.016,1.751,2.533v0.057h-3.658v-0.057c0.871-0.392,0.728-0.589,0.246-1.838l-0.961-2.516H21.525z    M23.754,32.646l-1.763,4.497h3.513L23.754,32.646z"/><path style="fill:#FFFFFF;" d="M34.805,40.553c0,1.016-0.018,1.711,0.929,2.266v0.057h-3.538v-0.057   c0.893-0.338,0.785-1.643,0.785-2.443v-7.962h-1.567c-0.768,0-1.572,0.196-2.127,0.716h-0.053l0.626-2.122h0.054   c0.214,0.088,0.447,0.088,0.679,0.12h0.446h6.654c0.303,0,0.592-0.014,0.822-0.12h0.051l-0.57,2.122h-0.053   c-0.231-0.627-0.947-0.716-1.536-0.716h-1.603V40.553z"/><path style="fill:#FFFFFF;" d="M48.208,41.695c-0.786,1.035-2.252,1.462-3.497,1.462c-1.18,0-2.432-0.374-3.235-1.248   c-0.941-1.04-0.905-2.231-0.905-3.516v-4.766c0-0.803,0.125-2.108-0.788-2.448v-0.053h3.392v0.053   c-0.895,0.34-0.788,1.645-0.788,2.448v4.766c0,2.372,1.001,3.479,2.844,3.479c0.994,0,2.011-0.41,2.602-1.252   c0.395-0.529,0.377-0.977,0.377-1.62v-5.374c0-0.803,0.105-2.108-0.786-2.448v-0.053h3.389l0.017,0.053   c-0.906,0.34-0.798,1.645-0.798,2.467v6.728c0,0.801-0.108,2.105,0.798,2.443v0.057h-2.619V41.695z"/><path style="fill:#FFFFFF;" d="M56.611,31.126c2.396,0,3.692,1.25,3.692,2.877c0,1.572-1.368,2.8-2.836,3.138l2.566,3.233   c0.754,0.926,1.878,1.854,2.896,2.5h-1.642c-0.948,0-1.537-0.234-2.067-0.895l-2.183-2.694l-1.642-2.518   c1.431-0.215,3.091-0.875,3.091-2.552c0-1.286-1.107-2.036-2.305-1.983c-0.411,0.019-0.805,0.073-1.21,0.144v7.998   c0,0.818-0.106,2.123,0.799,2.443v0.057h-3.408v-0.057c0.913-0.32,0.787-1.643,0.787-2.443v-6.728c0-0.822,0.126-2.127-0.787-2.467   v-0.053H56.611z"/><path style="fill:#FFFFFF;" d="M11.196,50.2c0.36-0.943,0.814-2.039-0.015-2.373v-0.038h1.988l-3.521,9.178   c-0.935-0.613-1.242-0.721-1.625-1.776l-2.018-5.452c-0.252-0.684-0.454-1.458-1.041-1.911v-0.038h1.951l-0.014,0.158   c0,0.295,0.254,0.949,0.36,1.241l2.118,5.801L11.196,50.2z"/><path style="fill:#FFFFFF;" d="M14.823,53.271l-0.696,1.879c-0.278,0.749-0.372,1.136,0.268,1.375v0.041h-2.451v-0.041   c0.775-0.387,0.996-1.135,1.288-1.898l2.232-5.56c0.188-0.479,0.44-1.039-0.2-1.24v-0.038h2.109l2.774,6.838   c0.304,0.764,0.547,1.512,1.307,1.898v0.041h-2.738v-0.041c0.657-0.293,0.548-0.44,0.188-1.375l-0.721-1.879H14.823z    M16.491,48.923l-1.321,3.36h2.626L16.491,48.923z M16.639,47.24c-0.668,0-1.202-0.562-1.202-1.242   c0-0.669,0.548-1.224,1.227-1.224c0.683,0,1.239,0.53,1.239,1.208C17.903,46.691,17.347,47.24,16.639,47.24z M16.652,46.745   c0.441,0,0.761-0.292,0.761-0.721c0-0.441-0.294-0.761-0.749-0.761c-0.44,0-0.733,0.308-0.733,0.734   C15.931,46.439,16.238,46.745,16.652,46.745z"/><path style="fill:#FFFFFF;" d="M25.548,47.789c1.786,0,2.761,0.934,2.761,2.146c0,1.172-1.028,2.093-2.118,2.349l1.919,2.414   c0.56,0.693,1.401,1.388,2.161,1.869h-1.227c-0.709,0-1.149-0.174-1.55-0.667l-1.622-2.014l-1.231-1.883   c1.069-0.159,2.311-0.654,2.311-1.909c0-0.956-0.827-1.518-1.722-1.479c-0.307,0.014-0.602,0.054-0.907,0.108v5.975   c0,0.614-0.081,1.589,0.601,1.828v0.041h-2.551v-0.041c0.681-0.239,0.587-1.229,0.587-1.828V49.67c0-0.615,0.094-1.589-0.587-1.843   v-0.038H25.548z"/><path style="fill:#FFFFFF;" d="M31.722,49.617c0-0.614,0.093-1.589-0.584-1.79v-0.038h3.267c3.041,0,4.937,1.655,4.937,4.309   c0,2.626-2.014,4.469-5.002,4.469h-3.202v-0.041c0.664-0.453,0.584-1.095,0.584-1.883V49.617z M33.084,55.511   c0.32,0.064,0.64,0.093,0.976,0.093c1.987,0,3.761-1.041,3.761-3.347c0-2.336-1.311-3.508-3.535-3.508   c-0.402,0-0.802,0.055-1.202,0.147V55.511z"/><path style="fill:#FFFFFF;" d="M45.82,49.378c-0.515-0.534-1.343-0.842-2.092-0.842c-0.761,0-1.722,0.292-1.722,1.214   c0,1.824,4.591,1.798,4.591,4.27c0,1.425-1.493,2.761-3.576,2.761c-0.815,0-1.627-0.121-2.385-0.399l-0.388-1.672   c0.783,0.682,1.876,1.11,2.92,1.11c0.761,0,1.911-0.455,1.911-1.385c0-2.085-4.59-1.71-4.59-4.54c0-1.679,1.716-2.319,3.348-2.319   c0.666,0,1.347,0.091,1.982,0.292V49.378z"/><path style="fill:#FFFFFF;" d="M10.701,63.904c0.317-0.826,0.717-1.789-0.013-2.082v-0.034h1.75L9.343,69.85   c-0.822-0.54-1.09-0.635-1.428-1.556l-1.771-4.793c-0.222-0.6-0.398-1.281-0.915-1.679v-0.034H6.94l-0.012,0.141   c0,0.258,0.223,0.832,0.318,1.089l1.859,5.099L10.701,63.904z"/><path style="fill:#FFFFFF;" d="M15,68.515l1.489,0.136c0.773,0.072,1.578-0.171,2.165-0.686h0.036l-0.529,1.531h-4.886v-0.035   c0.598-0.211,0.529-1.072,0.529-1.602v-4.418c0-0.54,0.069-1.398-0.529-1.619v-0.034h3.754c0.199,0,0.397,0.022,0.551-0.061h0.031   v1.373h-0.031c-0.364-0.421-0.846-0.47-1.386-0.47c-0.411,0-0.82,0.012-1.195,0.083v2.177h1.396c0.189,0,0.376,0,0.517-0.069h0.033   v1.245h-0.033c-0.189-0.343-0.682-0.331-1.044-0.331H15V68.515z"/><path style="fill:#FFFFFF;" d="M22.186,61.788c1.565,0,2.421,0.819,2.421,1.888c0,1.029-0.902,1.836-1.865,2.06l1.691,2.124   c0.492,0.61,1.23,1.213,1.899,1.637h-1.079c-0.622,0-1.008-0.149-1.362-0.586l-1.43-1.767l-1.075-1.653   c0.934-0.142,2.024-0.575,2.024-1.674c0-0.845-0.728-1.336-1.508-1.303c-0.27,0.011-0.529,0.046-0.798,0.094v5.252   c0,0.539-0.07,1.391,0.528,1.602v0.035h-2.24v-0.035c0.598-0.211,0.516-1.072,0.516-1.602v-4.418c0-0.54,0.082-1.398-0.516-1.619   v-0.034H22.186z"/><path style="fill:#FFFFFF;" d="M27.638,63.43c0-0.528,0.072-1.387-0.526-1.607v-0.034h2.252v0.034   c-0.599,0.211-0.529,1.079-0.529,1.607v4.418c0,0.541-0.07,1.391,0.529,1.613v0.035h-2.252v-0.035   c0.598-0.223,0.526-1.086,0.526-1.613V63.43z M30.526,63.453c0.385-0.552,1.088-1.278,0.304-1.631v-0.034h2.107v0.011l-2.696,3.457   l2.367,3.107c0.362,0.477,0.81,0.806,1.407,1.098v0.035h-1.101c-0.576,0-1.116-0.223-1.324-0.505l-2.602-3.501L30.526,63.453z"/><path style="fill:#FFFFFF;" d="M36.649,68.515l1.487,0.136c0.775,0.072,1.584-0.171,2.172-0.686h0.035l-0.529,1.531h-4.886v-0.035   c0.597-0.211,0.529-1.072,0.529-1.602v-4.418c0-0.54,0.068-1.398-0.529-1.619v-0.034h3.749c0.199,0,0.398,0.022,0.553-0.061h0.033   v1.373h-0.033c-0.365-0.421-0.843-0.47-1.385-0.47c-0.411,0-0.821,0.012-1.195,0.083v2.177h1.396c0.188,0,0.374,0,0.515-0.069   h0.035v1.245h-0.035c-0.188-0.343-0.681-0.331-1.046-0.331h-0.865V68.515z"/><path style="fill:#FFFFFF;" d="M44.184,67.977c0,0.664-0.014,1.121,0.609,1.484v0.035h-2.321v-0.035   c0.585-0.223,0.515-1.072,0.515-1.602v-5.229h-1.034c-0.501,0-1.024,0.13-1.388,0.47h-0.037l0.408-1.396h0.037   c0.14,0.058,0.289,0.058,0.443,0.083h0.292h4.37c0.2,0,0.388-0.014,0.539-0.083h0.036l-0.375,1.396h-0.034   c-0.155-0.41-0.616-0.47-1.003-0.47h-1.058V67.977z"/></g></svg>